<svg xmlns="http://www.w3.org/2000/svg" viewBox="0 0 261 261"><defs><style>.a{fill:#fff;}.b{fill:none;}.c{fill:#404e7c;}.d{fill:#251f47;}.e{fill:#86cb92;}</style></defs><path class="a" d="M42,32.62A32.63,32.63,0,0,1,74.62,0H270.37A32.63,32.63,0,0,1,303,32.62V228.37A32.63,32.63,0,0,1,270.37,261H74.62A32.63,32.63,0,0,1,42,228.37Z" transform="translate(-42)"/><path class="b" d="M155.6,202.1C67.7,184,95.72,77.33,171.42,42.94A361.68,361.68,0,0,1,297.06,13.86,32.58,32.58,0,0,0,270.38,0H74.62A32.63,32.63,0,0,0,42,32.62V228.38A32.63,32.63,0,0,0,74.62,261H270.38A32.63,32.63,0,0,0,303,228.38V208.84C260.83,209.31,211.92,207.26,155.6,202.1Z" transform="translate(-42)"/><path class="b" d="M143.72,119.36c-16.68,0-16.71,25.94,0,25.94S160.44,119.36,143.72,119.36Z" transform="translate(-42)"/><path class="c" d="M155.6,202.1c56.32,5.16,105.23,7.21,147.4,6.74V32.62a32.47,32.47,0,0,0-5.94-18.76A361.68,361.68,0,0,0,171.42,42.94C95.72,77.33,67.7,184,155.6,202.1Zm-11.88-56.8c-16.71,0-16.68-25.94,0-25.94S160.41,145.3,143.72,145.3Z" transform="translate(-42)"/><path class="c" d="M182.44,178.78c-4.28,14.78-8.94,30.16-8.19,45.72a54.23,54.23,0,0,0,2.19,13.27,5,5,0,0,0,9.65-2.65,43.61,43.61,0,0,1-1.26-5.16c-.08-.4-.14-.81-.21-1.21,0-.23-.19-1,0,.1,0-.2,0-.41-.08-.61-.1-.9-.18-1.79-.24-2.69a70,70,0,0,1,.21-11c.09-.93.19-1.86.31-2.79,0-.22,0-.43.08-.65,0,.07-.12.84,0,.26s.15-1,.22-1.51q.45-2.81,1-5.58c.76-3.75,1.67-7.46,2.66-11.15,1.05-3.9,2.18-7.78,3.31-11.66a5,5,0,0,0-9.65-2.66Z" transform="translate(-42)"/><path class="c" d="M226.26,184.44c-.85,16.79-.44,34.2,6.42,49.82a53.69,53.69,0,0,0,7.72,12.39c1.66,2,5.36,1.85,7.07,0a5.15,5.15,0,0,0,0-7.07L247,239c-.23-.29-.58-.42.07.09a5.66,5.66,0,0,1-.79-1.08c-.59-.83-1.15-1.68-1.69-2.55a51.3,51.3,0,0,1-2.7-5c-.22-.46-.42-.93-.63-1.39s.12.3.13.32a3.65,3.65,0,0,1-.28-.7c-.38-.95-.73-1.9-1.06-2.86-.62-1.82-1.15-3.66-1.61-5.52s-.88-3.9-1.21-5.87c-.08-.45-.15-.9-.22-1.34,0-.26-.07-.52-.11-.77s-.29-.76,0,.17a15.27,15.27,0,0,1-.36-3.1c-.39-3.87-.57-7.77-.6-11.66,0-4.43.1-8.85.32-13.27a5,5,0,0,0-5-5,5.12,5.12,0,0,0-5,5Z" transform="translate(-42)"/><path class="c" d="M290.87,188.33c-1.75,14-4.16,28.09-3.76,42.26a81.83,81.83,0,0,0,1.27,12.4c.47,2.58,3.74,4.28,6.15,3.5a5.13,5.13,0,0,0,3.49-6.16c-.09-.5-.18-1-.26-1.5,0-.27-.37-2-.09-.6a25.62,25.62,0,0,1-.32-3.16c-.18-2.18-.26-4.37-.28-6.56,0-4.57.22-9.15.61-13.7.76-8.86,2.09-17.66,3.19-26.48.33-2.61-2.53-5.11-5-5-3,.13-4.65,2.21-5,5Z" transform="translate(-42)"/><path class="c" d="M153.72,181.74c-7.06,13.08-12.9,27.24-15.56,41.92a92.18,92.18,0,0,0-1.46,12.94,5.05,5.05,0,0,0,5,5,5.11,5.11,0,0,0,5-5c.08-2.25.28-4.48.54-6.72.07-.58.07-.56,0,.06,0-.28.08-.57.13-.85.08-.57.17-1.14.27-1.7.17-1,.35-2,.55-3a118.45,118.45,0,0,1,3.63-13.47q1.09-3.28,2.34-6.51c.43-1.11.88-2.2,1.32-3.3.23-.54.23-.55,0,0l.35-.81.61-1.41c1.81-4.11,3.8-8.13,5.92-12.07a5,5,0,1,0-8.63-5Z" transform="translate(-42)"/><path class="c" d="M105.51,119.08a51,51,0,0,1-5.1-1.73c-.86-.34.13,0,.21.09a3.06,3.06,0,0,0-.66-.29l-1.13-.53c-.86-.42-1.71-.86-2.54-1.33a47.63,47.63,0,0,1-4.54-2.88l-1-.74c-.75-.56.12,0,.16.13a3,3,0,0,0-.56-.45c-.74-.6-1.47-1.22-2.18-1.86a52.67,52.67,0,0,1-3.8-3.82c-.56-.62-1.11-1.26-1.64-1.91-.18-.23-1.23-1.33-.32-.4a10,10,0,0,1-.86-1.16,53.08,53.08,0,0,1-3-4.69c-.41-.73-.8-1.47-1.18-2.22-.18-.37-.37-.75-.54-1.13l-.3-.65c-.07-.14-.49-1.09-.18-.39s0-.06-.09-.23l-.33-.83c-.17-.45-.33-.9-.49-1.35-.33-1-.63-1.92-.91-2.9s-.51-2-.71-3q-.15-.7-.27-1.41c-.06-.34-.34-2.28-.15-.81-.33-2.58-2.05-5.13-5-5-2.41.11-5.36,2.23-5,5a54.37,54.37,0,0,0,8.68,23.44A57.17,57.17,0,0,0,90,123.21a52.75,52.75,0,0,0,12.85,5.51,5,5,0,1,0,2.66-9.64Z" transform="translate(-42)"/><path class="c" d="M107.34,139.67a10,10,0,0,1-1.07,1.5c.9-.87.08-.12-.1.11l-.45.54a29.42,29.42,0,0,1-2.58,2.66c-.39.37-.81.71-1.22,1.06-.85.73.93-.65,0,0l-.5.37a24.43,24.43,0,0,1-2.86,1.73c-.43.23-.88.44-1.33.65-1,.45,1.12-.42.11-.06l-.54.21a24.58,24.58,0,0,1-3,.88l-1.4.27c-1.05.19,1.26-.13.2,0l-.57.06a25.28,25.28,0,0,1-3.14.1c-.48,0-1,0-1.43-.08s-2.06-.34-.39,0c-1.05-.21-2.1-.35-3.14-.61s-1.9-.52-2.83-.84c-.47-.16-.93-.33-1.4-.51-.12,0-1-.43-.23-.09s-.36-.17-.51-.24a40,40,0,0,1-5.6-3.16c-.43-.29-.85-.59-1.27-.9l-.5-.37c-.9-.66.88.72,0,0s-1.78-1.48-2.62-2.27-1.67-1.63-2.46-2.49c-.43-.47-.85-1-1.26-1.45l-.61-.74c-.62-.75.63.85,0,0a46.34,46.34,0,0,1-4.08-6.53,5,5,0,0,0-6.84-1.8,5.13,5.13,0,0,0-1.8,6.84c9,17.64,30.82,31.17,50.38,22.44,5.69-2.54,10.21-7.11,13.69-12.2a5,5,0,0,0-1.8-6.84,5.13,5.13,0,0,0-6.84,1.8Z" transform="translate(-42)"/><path class="d" d="M186.22,36.82a287.06,287.06,0,0,1,20.34,48.73,277.8,277.8,0,0,1,10.93,51.57,276.78,276.78,0,0,1,1.72,29.77c0,3.22,5,3.22,5,0a279.74,279.74,0,0,0-5.42-53.61,285.7,285.7,0,0,0-15.4-51.37,298.32,298.32,0,0,0-12.86-27.62c-1.5-2.84-5.82-.32-4.31,2.53Z" transform="translate(-42)"/><path class="d" d="M223.33,25.26a271.35,271.35,0,0,1,17.3,47.62,294.45,294.45,0,0,1,8.61,49.93q1.22,14.22,1.08,28.52c0,3.22,5,3.22,5,0a307,307,0,0,0-3.92-51.64,290.46,290.46,0,0,0-12.63-50,271,271,0,0,0-11.13-27,2.52,2.52,0,0,0-3.42-.9,2.55,2.55,0,0,0-.89,3.42Z" transform="translate(-42)"/><path class="d" d="M258.44,19a430.38,430.38,0,0,1,21.41,51.9,280.64,280.64,0,0,1,12.71,54.7,217.76,217.76,0,0,1,1.54,31.47c-.08,3.22,4.92,3.22,5,0a235.31,235.31,0,0,0-5.86-56.72,340.76,340.76,0,0,0-17.36-54.51c-4.05-9.93-8.45-19.71-13.12-29.36A2.5,2.5,0,1,0,258.44,19Z" transform="translate(-42)"/><path class="e" d="M143.26,146.44a14,14,0,1,0-14-14,14.21,14.21,0,0,0,14,14Z" transform="translate(-42)"/></svg>