<svg id="Layer_1" data-name="Layer 1" xmlns="http://www.w3.org/2000/svg" viewBox="0 0 476.26 236.99"><defs><style>.cls-1{fill:#404e7c;}.cls-2{fill:#251f47;}.cls-3{fill:#86cb92;}</style></defs><path class="cls-1" d="M126.87,206.76C771.53,265.89,446-83,142.7,47.61m0,0C67,82,39,188.63,126.87,206.76M115,150C98.28,150,98.31,124,115,124S131.69,150,115,150Z" transform="translate(-23.02 -15.67)"/><path class="cls-1" d="M154.18,183.34c-4.29,14.78-8.94,30.16-8.19,45.72a53.75,53.75,0,0,0,2.19,13.27,5,5,0,1,0,9.64-2.66,45.49,45.49,0,0,1-1.26-5.15c-.07-.4-.13-.81-.2-1.22,0-.23-.2-1,0,.11a6.17,6.17,0,0,1-.08-.62c-.1-.89-.19-1.79-.25-2.69a68.74,68.74,0,0,1,.22-11c.08-.93.19-1.87.3-2.8l.09-.64c0,.06-.13.84,0,.25s.15-1,.23-1.51q.43-2.79,1-5.58c.77-3.74,1.68-7.46,2.67-11.15,1-3.9,2.18-7.78,3.3-11.65a5,5,0,0,0-3.49-6.15,5.1,5.1,0,0,0-6.15,3.49Z" transform="translate(-23.02 -15.67)"/><path class="cls-1" d="M198,189c-.86,16.79-.45,34.19,6.42,49.82a53.59,53.59,0,0,0,7.71,12.38c1.66,2,5.37,1.86,7.07,0a5.14,5.14,0,0,0,0-7.07l-.48-.6c-.24-.28-.58-.41.07.1a5.26,5.26,0,0,1-.79-1.08c-.59-.83-1.16-1.68-1.69-2.55a50.57,50.57,0,0,1-2.71-5L213,233.6c-.24-.53.12.3.13.32a3.77,3.77,0,0,1-.29-.71c-.37-.94-.73-1.9-1-2.86-.62-1.81-1.16-3.66-1.62-5.52s-.88-3.9-1.21-5.87l-.21-1.34-.12-.77c-.05-.34-.28-.76,0,.17a15.16,15.16,0,0,1-.35-3.09c-.39-3.88-.57-7.77-.61-11.67,0-4.42.1-8.84.33-13.26a5,5,0,0,0-5-5,5.11,5.11,0,0,0-5,5Z" transform="translate(-23.02 -15.67)"/><path class="cls-1" d="M262.61,192.89c-1.76,14-4.16,28.08-3.77,42.26a82,82,0,0,0,1.28,12.4c.47,2.58,3.74,4.27,6.15,3.49a5.13,5.13,0,0,0,3.49-6.15c-.09-.5-.18-1-.26-1.51,0-.26-.37-2-.09-.59a27.73,27.73,0,0,1-.33-3.16q-.25-3.28-.27-6.56c0-4.58.21-9.15.61-13.7.76-8.87,2.08-17.66,3.19-26.48.32-2.61-2.54-5.11-5-5-3,.13-4.66,2.2-5,5Z" transform="translate(-23.02 -15.67)"/><path class="cls-1" d="M301.51,188.33c2.33,15.39,4.45,30.87,8.33,46,1.05,4.07,2.24,8.09,3.67,12,.89,2.45,3.44,4.37,6.15,3.49,2.41-.78,4.45-3.52,3.49-6.15-5.29-14.59-7.74-30.17-10.1-45.45-.64-4.18-1.26-8.37-1.9-12.55-.39-2.59-3.79-4.25-6.15-3.49-2.82.91-3.91,3.37-3.49,6.15Z" transform="translate(-23.02 -15.67)"/><path class="cls-1" d="M342.18,183.33c5.67,16.34,11.6,32.8,19.67,48.14a104.94,104.94,0,0,0,6.83,11.39c1.5,2.13,4.44,3.34,6.84,1.79,2.13-1.37,3.4-4.55,1.8-6.84a131,131,0,0,1-11.63-21.24c-.92-2-1.81-4.06-2.68-6.1.43,1-.16-.39-.28-.68-.21-.5-.42-1-.62-1.5-.41-1-.82-2-1.22-3-1.61-4-3.15-8.1-4.65-12.18s-3-8.27-4.42-12.43c-.85-2.46-3.46-4.36-6.15-3.49-2.44.79-4.41,3.5-3.49,6.15Z" transform="translate(-23.02 -15.67)"/><path class="cls-1" d="M412.85,174.66c2.15,15.25,5.24,30.6,11.17,44.87a102.41,102.41,0,0,0,6,12.33,5,5,0,1,0,8.63-5.05,100.18,100.18,0,0,1-5-10c-.23-.52.08.18.1.24l-.24-.58-.54-1.35c-.36-.91-.71-1.83-1-2.74q-1-2.69-1.85-5.41a186.23,186.23,0,0,1-5.54-22.48c-.78-4.15-1.44-8.32-2-12.5-.37-2.59-3.81-4.25-6.15-3.49-2.85.92-3.89,3.37-3.49,6.15Z" transform="translate(-23.02 -15.67)"/><path class="cls-1" d="M125.45,186.29c-7,13.09-12.89,27.24-15.55,41.92a90.71,90.71,0,0,0-1.46,12.94,5,5,0,0,0,5,5,5.1,5.1,0,0,0,5-5c.08-2.25.28-4.48.53-6.71.08-.58.07-.57,0,.06l.12-.85.27-1.71c.17-1,.36-2,.56-3a113.9,113.9,0,0,1,3.63-13.47q1.08-3.28,2.34-6.52c.42-1.1.87-2.2,1.32-3.3.22-.53.22-.54,0,0l.34-.81.62-1.41q2.72-6.15,5.92-12.07a5,5,0,0,0-8.64-5.05Z" transform="translate(-23.02 -15.67)"/><path class="cls-1" d="M384.18,180.66c3.3,15.49,6.79,31.12,12.73,45.85a108.26,108.26,0,0,0,5.77,12.35,5,5,0,0,0,8.64-5.05q-1.32-2.34-2.47-4.77c-.39-.8-.76-1.61-1.12-2.42-.19-.42-.37-.83-.55-1.25-.37-.84,0,0,0,.12l-.3-.73c-1.51-3.67-2.85-7.42-4.08-11.2-2.47-7.64-4.48-15.42-6.3-23.24-1-4.1-1.84-8.2-2.72-12.32a5,5,0,0,0-6.15-3.49,5.12,5.12,0,0,0-3.49,6.15Z" transform="translate(-23.02 -15.67)"/><path class="cls-1" d="M437.35,168.75c7.58,15.84,17.13,31.28,29.85,43.54A89.5,89.5,0,0,0,479.14,222a5,5,0,0,0,6.84-1.79,5.11,5.11,0,0,0-1.79-6.84c-.81-.55-1.62-1.12-2.41-1.7l-.64-.47-.28-.21c.49.37,0,0-.12-.1l-.93-.74c-1.6-1.3-3.16-2.66-4.66-4.08a104.29,104.29,0,0,1-8.75-9.33c-.61-.74-1.22-1.48-1.81-2.23-.17-.22-1.13-1.46-.48-.61L463,192.4q-1.9-2.57-3.69-5.21c-2.42-3.57-4.67-7.23-6.8-11Q449,170.07,446,163.7c-1.13-2.37-4.7-3.17-6.84-1.8a5.14,5.14,0,0,0-1.79,6.85Z" transform="translate(-23.02 -15.67)"/><path class="cls-1" d="M77.25,123.63a50.09,50.09,0,0,1-5.1-1.72c-.86-.35.12,0,.2.08a3.26,3.26,0,0,0-.65-.29l-1.14-.53c-.86-.41-1.7-.86-2.54-1.32A51.1,51.1,0,0,1,63.48,117l-1-.74c-.76-.56.12,0,.16.13a3.24,3.24,0,0,0-.56-.45c-.75-.6-1.47-1.23-2.18-1.87a50.72,50.72,0,0,1-3.81-3.81c-.56-.63-1.1-1.26-1.63-1.91-.19-.24-1.23-1.33-.33-.41a9.76,9.76,0,0,1-.85-1.15,52.35,52.35,0,0,1-3-4.69q-.62-1.09-1.17-2.22c-.19-.38-.37-.75-.55-1.13l-.3-.65c-.06-.15-.49-1.1-.17-.39s0-.07-.09-.23-.22-.56-.33-.84c-.17-.44-.34-.89-.49-1.34-.34-1-.64-1.93-.91-2.91s-.51-2-.72-3L45.28,88c-.06-.33-.33-2.27-.14-.8-.34-2.58-2.06-5.13-5-5-2.42.11-5.36,2.22-5,5a54.12,54.12,0,0,0,8.68,23.44,57.14,57.14,0,0,0,17.92,17.13,52.23,52.23,0,0,0,12.85,5.52,5,5,0,0,0,2.66-9.65Z" transform="translate(-23.02 -15.67)"/><path class="cls-1" d="M79.08,144.22a9.47,9.47,0,0,1-1.07,1.5c.89-.87.08-.11-.1.11l-.45.54A32.52,32.52,0,0,1,74.88,149c-.4.36-.81.7-1.22,1.05-.86.74.92-.65,0,0l-.51.36a25.82,25.82,0,0,1-2.85,1.74c-.44.23-.89.43-1.33.64-1,.46,1.12-.41.11-.05l-.54.2a23.4,23.4,0,0,1-3,.88c-.47.11-.94.19-1.41.27-1,.19,1.26-.12.2,0l-.57.06a27.27,27.27,0,0,1-3.13.09c-.48,0-1,0-1.43-.07s-2.06-.35-.39,0c-1.05-.21-2.1-.35-3.14-.61s-1.9-.52-2.83-.84c-.47-.16-.94-.34-1.4-.52-.12-.05-1-.43-.24-.09s-.36-.16-.5-.23a40.09,40.09,0,0,1-5.6-3.17c-.43-.29-.85-.59-1.27-.89l-.5-.38c-.91-.66.88.73,0,0s-1.78-1.48-2.62-2.28-1.67-1.63-2.46-2.49q-.65-.7-1.26-1.44l-.61-.74c-.62-.76.62.85,0,0A47.09,47.09,0,0,1,32.28,134a5,5,0,0,0-6.84-1.79A5.11,5.11,0,0,0,23.65,139c9,17.63,30.82,31.16,50.37,22.44,5.7-2.54,10.22-7.12,13.69-12.2a5,5,0,0,0-1.79-6.84,5.12,5.12,0,0,0-6.84,1.79Z" transform="translate(-23.02 -15.67)"/><path class="cls-2" d="M158,41.37A286.12,286.12,0,0,1,178.29,90.1a278.74,278.74,0,0,1,10.94,51.58,274,274,0,0,1,1.71,29.76c0,3.22,5,3.23,5,0a279.1,279.1,0,0,0-5.42-53.61,285,285,0,0,0-15.39-51.36,298.32,298.32,0,0,0-12.86-27.62c-1.51-2.85-5.82-.32-4.32,2.52Z" transform="translate(-23.02 -15.67)"/><path class="cls-2" d="M195.06,29.82a270.29,270.29,0,0,1,17.31,47.62A294.17,294.17,0,0,1,221,127.36q1.22,14.24,1.08,28.53c0,3.22,5,3.22,5,0a308,308,0,0,0-3.93-51.64,289.62,289.62,0,0,0-12.62-50,274.39,274.39,0,0,0-11.13-27A2.52,2.52,0,0,0,196,26.4a2.55,2.55,0,0,0-.9,3.42Z" transform="translate(-23.02 -15.67)"/><path class="cls-2" d="M230.17,23.6a430.44,430.44,0,0,1,21.42,51.9,280.45,280.45,0,0,1,12.7,54.7,216.21,216.21,0,0,1,1.54,31.47c-.08,3.22,4.92,3.21,5,0A235.26,235.26,0,0,0,265,105a339.12,339.12,0,0,0-17.36-54.51c-4-9.93-8.44-19.72-13.12-29.37a2.53,2.53,0,0,0-3.42-.9,2.57,2.57,0,0,0-.9,3.43Z" transform="translate(-23.02 -15.67)"/><path class="cls-2" d="M270.4,19.37a249.47,249.47,0,0,1,24.69,52.57,274.75,274.75,0,0,1,12.5,56.76,291.26,291.26,0,0,1,1.8,32.74c0,3.22,5,3.23,5,0a292.34,292.34,0,0,0-5.92-58.93,269.81,269.81,0,0,0-18.12-56.33,246.77,246.77,0,0,0-15.64-29.33c-1.69-2.73-6-.22-4.31,2.52Z" transform="translate(-23.02 -15.67)"/><path class="cls-2" d="M318.17,22.26a480.39,480.39,0,0,1,18,49.85A363,363,0,0,1,348,125a259.19,259.19,0,0,1,2.48,29.31c.09,3.21,5.09,3.23,5,0a293.1,293.1,0,0,0-6.79-53.74A417.93,417.93,0,0,0,333.54,48q-5.1-14.3-11.05-28.25a2.51,2.51,0,0,0-3.42-.9,2.57,2.57,0,0,0-.9,3.42Z" transform="translate(-23.02 -15.67)"/><path class="cls-2" d="M361.48,27.22a471.58,471.58,0,0,1,13.77,48.22,492.22,492.22,0,0,1,8.86,49.86q1.72,13.92,2.61,27.92c.2,3.2,5.2,3.22,5,0a480.89,480.89,0,0,0-5.92-50.47,496.88,496.88,0,0,0-11.11-49.86q-3.78-13.62-8.39-27a2.57,2.57,0,0,0-3.08-1.75,2.53,2.53,0,0,0-1.74,3.08Z" transform="translate(-23.02 -15.67)"/><path class="cls-2" d="M405.48,37.22A364.43,364.43,0,0,1,419.77,80.8a394.76,394.76,0,0,1,9.09,45.71q1.72,12.63,2.53,25.38a2.55,2.55,0,0,0,2.5,2.5,2.53,2.53,0,0,0,2.5-2.5,377,377,0,0,0-5.89-46.16,389.28,389.28,0,0,0-11.45-45.41q-3.93-12.37-8.75-24.43a2.59,2.59,0,0,0-3.08-1.75,2.52,2.52,0,0,0-1.74,3.08Z" transform="translate(-23.02 -15.67)"/><path class="cls-2" d="M438.37,57A406.7,406.7,0,0,1,455,119.89q1.57,8.85,2.63,17.78a2.58,2.58,0,0,0,2.5,2.5,2.51,2.51,0,0,0,2.5-2.5,373.8,373.8,0,0,0-13.73-64.48q-2.65-8.82-5.69-17.52a2.57,2.57,0,0,0-3.08-1.75A2.53,2.53,0,0,0,438.37,57Z" transform="translate(-23.02 -15.67)"/><path class="cls-3" d="M115,151a14,14,0,1,0-14-14,14.21,14.21,0,0,0,14,14Z" transform="translate(-23.02 -15.67)"/></svg>